<svg xmlns="http://www.w3.org/2000/svg" version="1.1" xmlns:xlink="http://www.w3.org/1999/xlink" xmlns:svgjs="http://svgjs.dev/svgjs" width="1500" height="1500" viewBox="0 0 1500 1500"><rect width="1500" height="1500" fill="#000000"></rect><g transform="matrix(0.6666666666666666,0,0,0.6666666666666666,249.39393939393938,435.99032258064517)"><svg viewBox="0 0 396 248" data-background-color="#302f2f" preserveAspectRatio="xMidYMid meet" height="939" width="1500" xmlns="http://www.w3.org/2000/svg" xmlns:xlink="http://www.w3.org/1999/xlink"><g id="tight-bounds" transform="matrix(1,0,0,1,0.2400000000000091,0.4000000000000057)"><svg viewBox="0 0 395.52 247.2" height="247.2" width="395.52"><g><svg></svg></g><g><svg viewBox="0 0 395.52 247.2" height="247.2" width="395.52"><mask id="fe9249e8-d6d9-49b6-8f42-d5a2cc641a07"><rect width="640" height="400" fill="white"></rect><g transform="matrix(1,0,0,1,137.5274504623514,37.08)"><svg viewBox="0 0 120.46509907529722 173.04" height="173.04" width="120.46509907529722"><g><svg viewBox="0 0 120.46509907529722 173.04" height="173.04" width="120.46509907529722"><g><svg viewBox="0 0 120.46509907529722 173.04" height="173.04" width="120.46509907529722"><g><svg viewBox="0 0 120.46509907529722 173.04" height="173.04" width="120.46509907529722"><g id="SvgjsG1016"><svg viewBox="0 0 120.46509907529722 173.04" height="173.04" width="120.46509907529722" id="SvgjsSvg1015"><g><svg viewBox="0 0 120.46509907529722 173.04" height="173.04" width="120.46509907529722"><g transform="matrix(1,0,0,1,0,0)"><svg width="120.46509907529722" viewBox="0.19999999999999996 -32.55 27.349999999999998 38.85" height="173.04" data-palette-color="#ffd700"><path d="M4.08-27.8Q6.95-31.55 13.5-31.55 20.05-31.55 22.88-27.85 25.7-24.15 25.7-16L25.7-16Q25.7-10.7 24.38-7.38 23.05-4.05 20.25-1.9L20.25-1.9 20.25-1.7 26.55-1.15 26 5.3 25.05 5.3Q21.4 5.3 18.5 3.6L18.5 3.6 13.15 0.5Q6.9 0.5 4.05-3.63 1.2-7.75 1.2-15.9 1.2-24.05 4.08-27.8ZM17.1-15.8Q17.1-20.4 16.38-22.03 15.65-23.65 13.43-23.65 11.2-23.65 10.55-22.03 9.9-20.4 9.9-15.85L9.9-15.85 9.9-14.65Q9.9-9.8 10.63-8.28 11.35-6.75 13.58-6.75 15.8-6.75 16.45-8.2 17.1-9.65 17.1-14.2L17.1-14.2 17.1-15.8Z" opacity="1" transform="matrix(1,0,0,1,0,0)" fill="black" class="wordmark-text-0" id="SvgjsPath1014" stroke-width="1" stroke="black" stroke-linejoin="round"></path></svg></g></svg></g></svg></g></svg></g><g></g></svg></g></svg></g></svg></g></mask><g transform="matrix(1,0,0,1,137.5274504623514,37.08)"><svg viewBox="0 0 120.46509907529722 173.04" height="173.04" width="120.46509907529722"><g><svg viewBox="0 0 120.46509907529722 173.04" height="173.04" width="120.46509907529722"><g><svg viewBox="0 0 120.46509907529722 173.04" height="173.04" width="120.46509907529722"><g><svg viewBox="0 0 120.46509907529722 173.04" height="173.04" width="120.46509907529722"><g id="textblocktransform"><svg viewBox="0 0 120.46509907529722 173.04" height="173.04" width="120.46509907529722" id="textblock"><g><svg viewBox="0 0 120.46509907529722 173.04" height="173.04" width="120.46509907529722"><g transform="matrix(1,0,0,1,0,0)"><svg width="120.46509907529722" viewBox="0.19999999999999996 -32.55 27.349999999999998 38.85" height="173.04" data-palette-color="#ffd700"><path d="M4.08-27.8Q6.95-31.55 13.5-31.55 20.05-31.55 22.88-27.85 25.7-24.15 25.7-16L25.7-16Q25.7-10.7 24.38-7.38 23.05-4.05 20.25-1.9L20.25-1.9 20.25-1.7 26.55-1.15 26 5.3 25.05 5.3Q21.4 5.3 18.5 3.6L18.5 3.6 13.15 0.5Q6.9 0.5 4.05-3.63 1.2-7.75 1.2-15.9 1.2-24.05 4.08-27.8ZM17.1-15.8Q17.1-20.4 16.38-22.03 15.65-23.65 13.43-23.65 11.2-23.65 10.55-22.03 9.9-20.4 9.9-15.85L9.9-15.85 9.9-14.65Q9.9-9.8 10.63-8.28 11.35-6.75 13.58-6.75 15.8-6.75 16.45-8.2 17.1-9.65 17.1-14.2L17.1-14.2 17.1-15.8Z" opacity="1" transform="matrix(1,0,0,1,0,0)" fill="#ffffff" class="wordmark-text-0" data-fill-palette-color="primary" id="text-0"></path></svg></g></svg></g></svg></g></svg></g><g></g></svg></g></svg></g></svg></g><g mask="url(#fe9249e8-d6d9-49b6-8f42-d5a2cc641a07)"><g transform="matrix(2.7461802690412873, 0, 0, 2.7461802690412873, 75.16603184765192, 1)"><svg xmlns="http://www.w3.org/2000/svg" xmlns:xlink="http://www.w3.org/1999/xlink" version="1.1" x="0" y="0" viewBox="0.35833249999999595 0.3587183000000067 89.28326340000001 89.2876563" enable-background="new 0 0 90 90" xml:space="preserve" height="89.2876563" width="89.28326340000001" class="icon-none" data-fill-palette-color="accent" id="none"><polygon points="57.928,58.169 57.875,76.027 45.397,63.548 45.397,45.639 " fill="#ffffff" data-fill-palette-color="accent"></polygon><polygon points="76.027,57.875 58.475,57.927 45.826,45.279 63.432,45.279 " fill="#ffffff" data-fill-palette-color="accent"></polygon><polygon points="76.027,32.125 63.432,44.721 45.707,44.721 58.355,32.073 " fill="#ffffff" data-fill-palette-color="accent"></polygon><polygon points="44.838,45.59 44.838,63.314 32.125,76.027 32.074,58.355 " fill="#ffffff" data-fill-palette-color="accent"></polygon><polygon points="57.928,31.712 45.397,44.243 45.397,26.452 57.875,13.974 " fill="#ffffff" data-fill-palette-color="accent"></polygon><polygon points="44.838,26.687 44.838,44.291 32.074,31.526 32.125,13.974 " fill="#ffffff" data-fill-palette-color="accent"></polygon><polygon points="44.479,44.721 26.569,44.721 13.974,32.125 31.832,32.073 " fill="#ffffff" data-fill-palette-color="accent"></polygon><polygon points="44.36,45.279 31.712,57.927 13.974,57.875 26.569,45.279 " fill="#ffffff" data-fill-palette-color="accent"></polygon><rect x="58.48" y="58.48" width="18.049" height="18.049" fill="#ffffff" data-fill-palette-color="accent"></rect><polygon points="76.527,13.474 76.527,31.516 58.914,31.516 58.912,31.518 58.484,31.516 58.484,13.474 " fill="#ffffff" data-fill-palette-color="accent"></polygon><polygon points="31.518,30.971 31.516,31.516 13.474,31.516 13.474,13.474 31.516,13.474 31.516,30.968 " fill="#ffffff" data-fill-palette-color="accent"></polygon><rect x="13.471" y="58.48" width="18.05" height="18.049" fill="#ffffff" data-fill-palette-color="accent"></rect><rect x="67.864" y="35.981" transform="matrix(0.7071 -0.7071 0.7071 0.7071 -9.3022 67.5465)" width="18.042" height="18.042" fill="#ffffff" data-fill-palette-color="accent"></rect><rect x="35.979" y="4.094" transform="matrix(0.7071 -0.7071 0.7071 0.7071 3.9068 35.6621)" width="18.042" height="18.042" fill="#ffffff" data-fill-palette-color="accent"></rect><rect x="4.095" y="35.98" transform="matrix(0.7071 -0.7071 0.7071 0.7071 -27.9787 22.4536)" width="18.041" height="18.041" fill="#ffffff" data-fill-palette-color="accent"></rect><rect x="35.98" y="67.865" transform="matrix(0.7071 -0.7071 0.7071 0.7071 -41.1877 54.3437)" width="18.04" height="18.041" fill="#ffffff" data-fill-palette-color="accent"></rect></svg></g></g></svg></g><defs></defs></svg><rect width="395.52" height="247.2" fill="none" stroke="none" visibility="hidden"></rect></g></svg></g></svg>